<svg width="60" height="44" viewBox="0 0 60 44" fill="none" xmlns="http://www.w3.org/2000/svg">
<path d="M7.7998 11.0001C8.35206 11.0001 8.79976 11.4479 8.7998 12.0001V14.2999H23.0996V12.0001C23.0997 11.4479 23.5474 11.0002 24.0996 11.0001H30.8994C31.4517 11.0001 31.8994 11.4479 31.8994 12.0001V22.8917C32.6695 20.9625 33.8241 19.1967 35.3096 17.7111C37.6091 15.4115 40.5781 13.8986 43.79 13.3898C47.0021 12.881 50.2928 13.4026 53.1904 14.879C55.4914 16.0514 57.4508 17.7783 58.8994 19.8907C59.524 20.8017 59.1228 22.0153 58.1387 22.5167L54.8418 24.1964C53.8577 24.6977 52.669 24.2814 51.9316 23.4591C51.3022 22.7572 50.5454 22.1726 49.6953 21.7394C48.2466 21.0012 46.6011 20.7409 44.9951 20.9952C43.3891 21.2496 41.9047 22.0056 40.7549 23.1554C39.6051 24.3052 38.8491 25.7896 38.5947 27.3956C38.3404 29.0016 38.6007 30.647 39.3389 32.0958C40.0771 33.5446 41.2553 34.7229 42.7041 35.4611C44.1528 36.1991 45.7985 36.4595 47.4043 36.2052C48.3467 36.0559 49.2469 35.733 50.0625 35.2599C51.018 34.7057 52.2775 34.6781 53.0586 35.4591L55.6748 38.0753C56.4555 38.8563 56.4622 40.1345 55.5869 40.8077C53.5564 42.3691 51.159 43.4057 48.6084 43.8097C45.3964 44.3184 42.1056 43.7978 39.208 42.3214C36.3104 40.845 33.9549 38.4886 32.4785 35.5909C32.2645 35.171 32.073 34.7418 31.8994 34.3068V43.0001C31.8992 43.5522 31.4516 44.0001 30.8994 44.0001H24.0996C23.5475 44.0001 23.0998 43.5522 23.0996 43.0001V20.0616L17.3369 34.0372C16.8266 35.2747 15.0739 35.2746 14.5635 34.0372L8.7998 20.0607V43.0001C8.7996 43.5522 8.35196 44.0001 7.7998 44.0001H1C0.447843 44.0001 0.000206111 43.5522 0 43.0001V12.0001C4.77186e-05 11.4479 0.447745 11.0001 1 11.0001H7.7998ZM27.4629 0.000122471C28.5129 -0.00688694 29.5433 0.28712 30.4316 0.846802C31.32 1.40653 32.0296 2.20919 32.4766 3.1593C32.9235 4.10946 33.0894 5.16784 32.9541 6.20911C32.862 6.91808 32.632 7.59867 32.2822 8.21497C32.0096 8.69526 31.3694 8.7477 30.9463 8.3927L28.1514 6.047C27.7757 5.7318 27.2268 5.73558 26.8555 6.05579L24.0918 8.4386C23.6735 8.79925 23.033 8.75598 22.7539 8.27942C22.3958 7.66783 22.1573 6.9901 22.0557 6.28235C21.9064 5.24298 22.0581 4.18278 22.4922 3.22668C22.9263 2.27055 23.625 1.45848 24.5059 0.886841C25.3867 0.315257 26.4129 0.00718783 27.4629 0.000122471Z" fill="#F6EECB"/>
</svg>
